<svg width="30" height="30" viewBox="0 0 30 30" fill="none" xmlns="http://www.w3.org/2000/svg">
<g id="vuesax/bold/bag-tick">
<g id="bag-tick">
<path id="Vector" d="M24.05 6.97568H23.55L19.325 2.75068C18.9875 2.41318 18.4375 2.41318 18.0875 2.75068C17.75 3.08818 17.75 3.63818 18.0875 3.98818L21.075 6.97568H8.925L11.9125 3.98818C12.25 3.65068 12.25 3.10068 11.9125 2.75068C11.575 2.41318 11.025 2.41318 10.675 2.75068L6.4625 6.97568H5.9625C4.8375 6.97568 2.5 6.97568 2.5 10.1757C2.5 11.3882 2.75 12.1882 3.275 12.7132C3.575 13.0257 3.9375 13.1882 4.325 13.2757C4.6875 13.3632 5.075 13.3757 5.45 13.3757H24.55C24.9375 13.3757 25.3 13.3507 25.65 13.2757C26.7 13.0257 27.5 12.2757 27.5 10.1757C27.5 6.97568 25.1625 6.97568 24.05 6.97568Z" fill="white"/>
<path id="Vector_2" d="M23.8621 15H6.13713C5.36213 15 4.77463 15.6875 4.89963 16.45L5.94963 22.875C6.29963 25.025 7.23713 27.5 11.3996 27.5H18.4121C22.6246 27.5 23.3746 25.3875 23.8246 23.025L25.0871 16.4875C25.2371 15.7125 24.6496 15 23.8621 15ZM18.5996 20.0625L14.5371 23.8125C14.3621 23.975 14.1371 24.0625 13.8996 24.0625C13.6621 24.0625 13.4246 23.975 13.2371 23.7875L11.3621 21.9125C10.9996 21.55 10.9996 20.95 11.3621 20.5875C11.7371 20.225 12.3246 20.225 12.6996 20.5875L13.9371 21.825L17.3371 18.6875C17.7121 18.3375 18.3121 18.3625 18.6621 18.7375C19.0121 19.125 18.9871 19.7125 18.5996 20.0625Z" fill="white"/>
</g>
</g>
</svg>
