<svg width="28" height="28" viewBox="0 0 28 28" fill="none" xmlns="http://www.w3.org/2000/svg">
<g id="vuesax/linear/bag-tick">
<g id="bag-tick">
<path id="Vector" d="M11.2227 18.6666L12.9727 20.4166L16.7643 16.9166" stroke="#292D32" stroke-width="1.5" stroke-linecap="round" stroke-linejoin="round"/>
<path id="Vector_2" d="M10.278 2.33337L6.05469 6.56837" stroke="#292D32" stroke-width="1.5" stroke-miterlimit="10" stroke-linecap="round" stroke-linejoin="round"/>
<path id="Vector_3" d="M17.7207 2.33337L21.944 6.56837" stroke="#292D32" stroke-width="1.5" stroke-miterlimit="10" stroke-linecap="round" stroke-linejoin="round"/>
<path id="Vector_4" d="M2.33398 9.15828C2.33398 6.99995 3.48898 6.82495 4.92398 6.82495H23.0773C24.5123 6.82495 25.6673 6.99995 25.6673 9.15828C25.6673 11.6666 24.5123 11.4916 23.0773 11.4916H4.92398C3.48898 11.4916 2.33398 11.6666 2.33398 9.15828Z" stroke="#292D32" stroke-width="1.5"/>
<path id="Vector_5" d="M4.08398 11.6666L5.72898 21.7466C6.10232 24.01 7.00065 25.6666 10.3373 25.6666H17.3723C21.0007 25.6666 21.5373 24.08 21.9573 21.8866L23.9173 11.6666" stroke="#292D32" stroke-width="1.5" stroke-linecap="round"/>
</g>
</g>
</svg>
