<svg width="25" height="24" viewBox="0 0 25 24" fill="none" xmlns="http://www.w3.org/2000/svg">
<g id="Huge-icon/communication/outline/call">
<path id="Rectangle 77" d="M21.5 19V17.3541C21.5 16.5363 21.0021 15.8008 20.2428 15.4971L18.2086 14.6835C17.2429 14.2971 16.1422 14.7156 15.677 15.646L15.5 16C15.5 16 13 15.5 11 13.5C9 11.5 8.5 9 8.5 9L8.85402 8.82299C9.78438 8.35781 10.2029 7.25714 9.81654 6.29136L9.00289 4.25722C8.69916 3.4979 7.96374 3 7.14593 3H5.5C4.39543 3 3.5 3.89543 3.5 5C3.5 13.8366 10.6634 21 19.5 21C20.6046 21 21.5 20.1046 21.5 19Z" stroke="#F11F19" stroke-width="1.5" stroke-linejoin="round"/>
</g>
</svg>
