<svg width="24" height="24" viewBox="0 0 24 24" fill="none" xmlns="http://www.w3.org/2000/svg">
<g id="vuesax/bold/danger">
<g id="danger">
<path id="Vector" d="M21.7605 15.922L15.3605 4.40195C14.5005 2.85195 13.3105 2.00195 12.0005 2.00195C10.6905 2.00195 9.50047 2.85195 8.64047 4.40195L2.24047 15.922C1.43047 17.392 1.34047 18.802 1.99047 19.912C2.64047 21.022 3.92047 21.632 5.60047 21.632H18.4005C20.0805 21.632 21.3605 21.022 22.0105 19.912C22.6605 18.802 22.5705 17.382 21.7605 15.922ZM11.2505 9.00195C11.2505 8.59195 11.5905 8.25195 12.0005 8.25195C12.4105 8.25195 12.7505 8.59195 12.7505 9.00195V14.002C12.7505 14.412 12.4105 14.752 12.0005 14.752C11.5905 14.752 11.2505 14.412 11.2505 14.002V9.00195ZM12.7105 17.712C12.6605 17.752 12.6105 17.792 12.5605 17.832C12.5005 17.872 12.4405 17.902 12.3805 17.922C12.3205 17.952 12.2605 17.972 12.1905 17.982C12.1305 17.992 12.0605 18.002 12.0005 18.002C11.9405 18.002 11.8705 17.992 11.8005 17.982C11.7405 17.972 11.6805 17.952 11.6205 17.922C11.5605 17.902 11.5005 17.872 11.4405 17.832C11.3905 17.792 11.3405 17.752 11.2905 17.712C11.1105 17.522 11.0005 17.262 11.0005 17.002C11.0005 16.742 11.1105 16.482 11.2905 16.292C11.3405 16.252 11.3905 16.212 11.4405 16.172C11.5005 16.132 11.5605 16.102 11.6205 16.082C11.6805 16.052 11.7405 16.032 11.8005 16.022C11.9305 15.992 12.0705 15.992 12.1905 16.022C12.2605 16.032 12.3205 16.052 12.3805 16.082C12.4405 16.102 12.5005 16.132 12.5605 16.172C12.6105 16.212 12.6605 16.252 12.7105 16.292C12.8905 16.482 13.0005 16.742 13.0005 17.002C13.0005 17.262 12.8905 17.522 12.7105 17.712Z" fill="#F11F19"/>
</g>
</g>
</svg>
