<svg width="30" height="30" viewBox="0 0 30 30" fill="none" xmlns="http://www.w3.org/2000/svg">
<g id="vuesax/bold/empty-wallet">
<g id="empty-wallet">
<path id="Vector" d="M18.5625 4.9375V9.6875H16.6875V4.9375C16.6875 4.6 16.3875 4.4375 16.1875 4.4375C16.125 4.4375 16.0625 4.45 16 4.475L6.0875 8.2125C5.425 8.4625 5 9.0875 5 9.8V10.6375C3.8625 11.4875 3.125 12.85 3.125 14.3875V9.8C3.125 8.3125 4.0375 6.9875 5.425 6.4625L15.35 2.7125C15.625 2.6125 15.9125 2.5625 16.1875 2.5625C17.4375 2.5625 18.5625 3.575 18.5625 4.9375Z" fill="white"/>
<path id="Vector_2" d="M26.8749 18.125V19.375C26.8749 19.7125 26.6124 19.9875 26.2624 20H24.4374C23.7749 20 23.1749 19.5125 23.1249 18.8625C23.0874 18.475 23.2374 18.1125 23.4874 17.8625C23.7124 17.625 24.0249 17.5 24.3624 17.5H26.2499C26.6124 17.5125 26.8749 17.7875 26.8749 18.125Z" fill="white"/>
<path id="Vector_3" d="M24.35 16.1875H25.625C26.3125 16.1875 26.875 15.625 26.875 14.9375V14.3875C26.875 11.8 24.7625 9.6875 22.175 9.6875H7.825C6.7625 9.6875 5.7875 10.0375 5 10.6375C3.8625 11.4875 3.125 12.85 3.125 14.3875V22.8C3.125 25.3875 5.2375 27.5 7.825 27.5H22.175C24.7625 27.5 26.875 25.3875 26.875 22.8V22.5625C26.875 21.875 26.3125 21.3125 25.625 21.3125H24.5375C23.3375 21.3125 22.1875 20.575 21.875 19.4125C21.6125 18.4625 21.925 17.55 22.55 16.9375C23.0125 16.4625 23.65 16.1875 24.35 16.1875ZM17.5 15.9375H8.75C8.2375 15.9375 7.8125 15.5125 7.8125 15C7.8125 14.4875 8.2375 14.0625 8.75 14.0625H17.5C18.0125 14.0625 18.4375 14.4875 18.4375 15C18.4375 15.5125 18.0125 15.9375 17.5 15.9375Z" fill="white"/>
</g>
</g>
</svg>
