<svg width="14" height="14" viewBox="0 0 14 14" fill="none" xmlns="http://www.w3.org/2000/svg">
<g id="vuesax/linear/filter-search">
<g id="filter-search">
<g id="Group">
<path id="Vector" d="M8.35317 11.1242C8.35317 11.48 8.11982 11.9467 7.82232 12.1275L6.99983 12.6584C6.23567 13.1309 5.174 12.6 5.174 11.655V8.53418C5.174 8.12001 4.94066 7.58918 4.7015 7.29752L2.46148 4.94084C2.16398 4.64334 1.93066 4.11835 1.93066 3.76252V2.40918C1.93066 1.70335 2.46151 1.17252 3.10901 1.17252H10.8907C11.5382 1.17252 12.069 1.70334 12.069 2.35084V3.64584C12.069 4.11834 11.7715 4.70751 11.4798 4.99918" stroke="#F11F19" stroke-width="1.5" stroke-miterlimit="10" stroke-linecap="round" stroke-linejoin="round"/>
</g>
<g id="Group_2">
<path id="Vector_2" d="M9.374 9.63665C10.4049 9.63665 11.2407 8.80093 11.2407 7.76999C11.2407 6.73906 10.4049 5.90332 9.374 5.90332C8.34307 5.90332 7.50732 6.73906 7.50732 7.76999C7.50732 8.80093 8.34307 9.63665 9.374 9.63665Z" stroke="#F11F19" stroke-width="1.5" stroke-linecap="round" stroke-linejoin="round"/>
<path id="Vector_3" d="M11.5907 9.98665L11.0073 9.40332" stroke="#F11F19" stroke-width="1.5" stroke-linecap="round" stroke-linejoin="round"/>
</g>
</g>
</g>
</svg>
