<svg width="12" height="12" viewBox="0 0 12 12" fill="none" xmlns="http://www.w3.org/2000/svg">
<g id="mdi:currency-rial">
<path id="Vector" d="M5.5 8.5H6.5V9.5H5.5V8.5ZM7 8.5H8V9.5H7V8.5ZM4.5 2H5.5V7.5C5.5 8.03043 5.28929 8.53914 4.91421 8.91421C4.53914 9.28929 4.03043 9.5 3.5 9.5H2.5C2.10218 9.5 1.72064 9.34196 1.43934 9.06066C1.15804 8.77936 1 8.39782 1 8V6H2V8C2 8.13261 2.05268 8.25979 2.14645 8.35355C2.24021 8.44732 2.36739 8.5 2.5 8.5H3.5C4.055 8.5 4.5 8.055 4.5 7.5V2ZM6 2H7V6.5H8.5V4H9.5V6.5C9.5 7.055 9.055 7.5 8.5 7.5H7C6.445 7.5 6 7.055 6 6.5V2ZM10 5H11V8.5C11 8.89782 10.842 9.27936 10.5607 9.56066C10.2794 9.84196 9.89782 10 9.5 10H8.5V9H9.5C9.63261 9 9.75979 8.94732 9.85355 8.85355C9.94732 8.75979 10 8.63261 10 8.5V5Z" fill="#F11F19"/>
</g>
</svg>
