<svg width="23" height="24" viewBox="0 0 23 24" fill="none" xmlns="http://www.w3.org/2000/svg">
<g id="vuesax/bold/message-text">
<g id="message-text">
<path id="Vector" d="M16.291 2.41467H6.70768C4.06268 2.41467 1.91602 4.55176 1.91602 7.18717V12.918V13.8763C1.91602 16.5118 4.06268 18.6488 6.70768 18.6488H8.14518C8.40393 18.6488 8.74893 18.8213 8.91185 19.0322L10.3493 20.9393C10.9818 21.7826 12.0168 21.7826 12.6493 20.9393L14.0868 19.0322C14.2689 18.7926 14.5564 18.6488 14.8535 18.6488H16.291C18.936 18.6488 21.0827 16.5118 21.0827 13.8763V7.18717C21.0827 4.55176 18.936 2.41467 16.291 2.41467ZM12.4577 13.6751H6.70768C6.31477 13.6751 5.98893 13.3493 5.98893 12.9563C5.98893 12.5634 6.31477 12.2376 6.70768 12.2376H12.4577C12.8506 12.2376 13.1764 12.5634 13.1764 12.9563C13.1764 13.3493 12.8506 13.6751 12.4577 13.6751ZM16.291 8.88342H6.70768C6.31477 8.88342 5.98893 8.55759 5.98893 8.16467C5.98893 7.77176 6.31477 7.44592 6.70768 7.44592H16.291C16.6839 7.44592 17.0098 7.77176 17.0098 8.16467C17.0098 8.55759 16.6839 8.88342 16.291 8.88342Z" fill="#292D32"/>
</g>
</g>
</svg>
