<svg width="18" height="18" viewBox="0 0 18 18" fill="none" xmlns="http://www.w3.org/2000/svg">
<g id="Huge-icon/notes and task/outline/notes-edit">
<path id="Vector" d="M15.75 7.5V5.625C15.75 3.96815 14.4069 2.625 12.75 2.625H5.25C3.59315 2.625 2.25 3.96815 2.25 5.625V13.5C2.25 15.1569 3.59315 16.5 5.25 16.5H6.75M6 1.5V3.75M12 1.5V3.75M9 16.5L11.2956 15.8456C11.4186 15.8105 11.5307 15.7446 11.6212 15.6541L15.3823 11.893C15.8726 11.4027 15.8726 10.6079 15.3823 10.1177C14.8921 9.62744 14.0973 9.62744 13.607 10.1177L9.84591 13.8788C9.75542 13.9693 9.68951 14.0814 9.65443 14.2044L9 16.5Z" stroke="#282828" stroke-width="1.5" stroke-linecap="round"/>
</g>
</svg>
