<svg width="30" height="30" viewBox="0 0 30 30" fill="none" xmlns="http://www.w3.org/2000/svg">
<g id="vuesax/bold/notification-bing">
<g id="notification-bing">
<path id="Vector" d="M25.238 17.575L23.8255 15.225C23.513 14.7125 23.238 13.725 23.238 13.125V10.7875C23.238 6.25 19.5505 2.5625 15.0255 2.5625C10.488 2.575 6.8005 6.25 6.8005 10.7875V13.1125C6.8005 13.7125 6.5255 14.7 6.2255 15.2125L4.813 17.5625C4.2755 18.475 4.1505 19.5125 4.488 20.4125C4.8255 21.325 5.588 22.05 6.588 22.375C7.938 22.825 9.3005 23.15 10.688 23.3875C10.8255 23.4125 10.963 23.425 11.1005 23.45C11.2755 23.475 11.463 23.5 11.6505 23.525C11.9755 23.575 12.3005 23.6125 12.638 23.6375C13.4255 23.7125 14.2255 23.75 15.0255 23.75C15.813 23.75 16.6005 23.7125 17.3755 23.6375C17.663 23.6125 17.9505 23.5875 18.2255 23.55C18.4505 23.525 18.6755 23.5 18.9005 23.4625C19.038 23.45 19.1755 23.425 19.313 23.4C20.713 23.175 22.1005 22.825 23.4505 22.375C24.413 22.05 25.1505 21.325 25.5005 20.4C25.8505 19.4625 25.7505 18.4375 25.238 17.575ZM15.938 12.5C15.938 13.025 15.513 13.45 14.988 13.45C14.463 13.45 14.038 13.025 14.038 12.5V8.625C14.038 8.1 14.463 7.675 14.988 7.675C15.513 7.675 15.938 8.1 15.938 8.625V12.5Z" fill="white"/>
<path id="Vector_2" d="M17.9246 25.0875C18.2058 25.0524 18.4191 25.3258 18.2804 25.573C17.6351 26.7225 16.4063 27.5 14.9996 27.5C14.0121 27.5 13.0371 27.1 12.3496 26.3875C12.0721 26.1273 11.8427 25.807 11.6699 25.4641C11.5666 25.2594 11.7476 25.0301 11.9746 25.0625C12.2621 25.1 12.5621 25.1375 12.8621 25.1625C13.5746 25.225 14.2996 25.2625 15.0246 25.2625C15.7371 25.2625 16.4496 25.225 17.1496 25.1625C17.4121 25.1375 17.6746 25.125 17.9246 25.0875Z" fill="white"/>
</g>
</g>
</svg>
