<svg width="28" height="28" viewBox="0 0 28 28" fill="none" xmlns="http://www.w3.org/2000/svg">
<g id="solar:delivery-linear">
<g id="Group">
<path id="Vector" d="M8.75727 17.8092C8.78791 17.9199 8.84007 18.0236 8.91077 18.1142C8.98147 18.2048 9.06933 18.2806 9.16932 18.3373C9.26931 18.3939 9.37949 18.4303 9.49355 18.4444C9.60761 18.4585 9.72334 18.45 9.83411 18.4193C9.94488 18.3887 10.0485 18.3365 10.1391 18.2658C10.2298 18.1951 10.3055 18.1073 10.3622 18.0073C10.4189 17.9073 10.4553 17.7971 10.4694 17.6831C10.4834 17.569 10.4749 17.4533 10.4443 17.3425L8.75727 17.8092ZM3.73361 5.51251C3.6224 5.48003 3.50585 5.46996 3.39072 5.48287C3.27559 5.49579 3.16417 5.53144 3.06293 5.58776C2.96169 5.64408 2.87264 5.71994 2.80095 5.81094C2.72925 5.90195 2.67635 6.00628 2.6453 6.1179C2.61424 6.22951 2.60567 6.34618 2.62006 6.46113C2.63446 6.57609 2.67154 6.68704 2.72915 6.78755C2.78676 6.88806 2.86376 6.97613 2.95568 7.04665C3.0476 7.11717 3.1526 7.16873 3.26461 7.19835L3.73361 5.51251ZM23.5529 18.3458C23.6669 18.3195 23.7744 18.2706 23.8691 18.202C23.9638 18.1334 24.0438 18.0465 24.1043 17.9465C24.1649 17.8464 24.2048 17.7353 24.2217 17.6196C24.2385 17.5038 24.232 17.3859 24.2026 17.2728C24.1731 17.1596 24.1212 17.0535 24.05 16.9607C23.9788 16.8679 23.8898 16.7904 23.7881 16.7326C23.6864 16.6748 23.5742 16.638 23.4581 16.6243C23.3419 16.6107 23.2242 16.6204 23.1119 16.653L23.5529 18.3458ZM11.8968 20.4855C12.2584 21.7922 11.4651 23.1723 10.0604 23.5375L10.5003 25.2303C12.8068 24.6318 14.2161 22.3113 13.5838 20.0188L11.8968 20.4855ZM10.0604 23.5375C8.64644 23.905 7.22777 23.0837 6.86377 21.7653L5.17677 22.232C5.80677 24.5128 8.20311 25.8277 10.5003 25.2303L10.0604 23.5375ZM6.86377 21.7653C6.50211 20.4587 7.29544 19.0785 8.70011 18.7133L8.26027 17.0217C5.95377 17.6202 4.54327 19.9395 5.17677 22.232L6.86377 21.7653ZM8.70011 18.7133C10.1141 18.3458 11.5328 19.1672 11.8968 20.4855L13.5838 20.0188C12.9538 17.738 10.5574 16.4232 8.26027 17.0205L8.70011 18.7133ZM10.4443 17.3425L7.93361 8.25418L6.24661 8.72084L8.75727 17.8092L10.4443 17.3425ZM5.72161 6.06318L3.73361 5.51251L3.26461 7.19835L5.25377 7.75018L5.72161 6.06318ZM7.93361 8.25418C7.78558 7.729 7.50402 7.25114 7.11636 6.86716C6.7287 6.48318 6.24817 6.20619 5.72161 6.06318L5.25611 7.75018C5.75194 7.88785 6.12061 8.26468 6.24661 8.72084L7.93361 8.25418ZM12.9619 21.0992L23.5529 18.3458L23.1131 16.653L12.5209 19.4063L12.9619 21.0992Z" fill="#F11F19"/>
<path id="Vector_2" d="M11.1593 10.185C10.5934 8.13751 10.3111 7.11318 10.7918 6.30701C11.2713 5.49968 12.3271 5.22551 14.4388 4.67601L16.6788 4.09501C18.7904 3.54668 19.8463 3.27134 20.6781 3.73684C21.5099 4.20351 21.7934 5.22668 22.3581 7.27534L22.9589 9.44768C23.5248 11.4952 23.8083 12.5195 23.3276 13.3268C22.8469 14.133 21.7911 14.4083 19.6794 14.9567L17.4394 15.5388C15.3278 16.0872 14.2719 16.3613 13.4401 15.8958C12.6083 15.4292 12.3259 14.406 11.7601 12.3585L11.1593 10.185Z" stroke="#F11F19" stroke-width="1.5"/>
</g>
</g>
</svg>
