<svg width="10" height="10" viewBox="0 0 10 10" fill="none" xmlns="http://www.w3.org/2000/svg">
<g id="vuesax/linear/star">
<g id="star">
<path id="Vector" d="M5.7208 1.46248L6.45413 2.92914C6.55413 3.13331 6.8208 3.32914 7.0458 3.36664L8.37496 3.58748C9.22496 3.72914 9.42496 4.34581 8.81246 4.95414L7.77913 5.98748C7.60413 6.16248 7.5083 6.49998 7.56246 6.74164L7.8583 8.02081C8.09163 9.03331 7.55413 9.42498 6.6583 8.89581L5.41246 8.15831C5.18746 8.02498 4.81663 8.02498 4.58746 8.15831L3.34163 8.89581C2.44996 9.42498 1.9083 9.02914 2.14163 8.02081L2.43746 6.74164C2.49163 6.49998 2.3958 6.16248 2.2208 5.98748L1.18746 4.95414C0.579129 4.34581 0.774962 3.72914 1.62496 3.58748L2.95413 3.36664C3.17496 3.32914 3.44163 3.13331 3.54163 2.92914L4.27496 1.46248C4.67496 0.666642 5.32496 0.666642 5.7208 1.46248Z" fill="#FFD600" stroke="#282828" stroke-width="0.5" stroke-linecap="round" stroke-linejoin="round"/>
</g>
</g>
</svg>
