<svg width="10" height="10" viewBox="0 0 10 10" fill="none" xmlns="http://www.w3.org/2000/svg">
<g id="vuesax/linear/star">
<g id="star">
<path id="Vector" d="M5.72104 1.46248L6.45437 2.92914C6.55437 3.13331 6.82104 3.32914 7.04604 3.36664L8.37521 3.58748C9.22521 3.72914 9.42521 4.34581 8.81271 4.95414L7.77937 5.98748C7.60437 6.16248 7.50854 6.49998 7.56271 6.74164L7.85854 8.02081C8.09187 9.03331 7.55437 9.42498 6.65854 8.89581L5.41271 8.15831C5.18771 8.02498 4.81687 8.02498 4.58771 8.15831L3.34187 8.89581C2.45021 9.42498 1.90854 9.02914 2.14187 8.02081L2.43771 6.74164C2.49187 6.49998 2.39604 6.16248 2.22104 5.98748L1.18771 4.95414C0.579373 4.34581 0.775206 3.72914 1.62521 3.58748L2.95437 3.36664C3.17521 3.32914 3.44187 3.13331 3.54187 2.92914L4.27521 1.46248C4.67521 0.666642 5.32521 0.666642 5.72104 1.46248Z" stroke="#282828" stroke-width="0.5" stroke-linecap="round" stroke-linejoin="round"/>
</g>
</g>
</svg>
