<svg width="25" height="24" viewBox="0 0 25 24" fill="none" xmlns="http://www.w3.org/2000/svg">
<g id="Huge-icon/ecommerce/outline/store">
<path id="Rectangle 742" d="M20.5 12V18C20.5 20.2091 18.7091 22 16.5 22H8.5C6.29086 22 4.5 20.2091 4.5 18V12" stroke="#28303F" stroke-width="1.5"/>
<path id="Vector" d="M17.2689 2H7.73146C5.91411 2 4.27985 3.24476 3.6049 5.14305L2.84692 7.27487C2.61747 7.92019 2.45887 8.61074 2.62622 9.27488C3.02257 10.8478 4.30844 12 5.83354 12C7.67449 12 9.16687 10.3211 9.16687 8.25C9.16687 10.3211 10.6593 12 12.5002 12C14.3412 12 15.8335 10.3211 15.8335 8.25C15.8335 10.3211 17.3259 12 19.1669 12C20.692 12 21.9778 10.8478 22.3742 9.27488C22.5415 8.61074 22.3829 7.92019 22.1535 7.27487L21.3955 5.14305C20.7206 3.24475 19.0863 2 17.2689 2Z" stroke="#28303F" stroke-width="1.5" stroke-linejoin="round"/>
<path id="Vector 1788" d="M9.5 17C11.8561 18.3404 13.1476 18.3263 15.5 17" stroke="#28303F" stroke-width="1.5" stroke-linecap="round" stroke-linejoin="round"/>
</g>
</svg>
